# xmcd
#
# Track frame offsets:
#	150
#	11688
#	25342
#	37552
#	51172
#	64491
#	77200
#	87571
#	100556
#	112662
#	130916
#	148053
#	157570
#	170354
#	183991
#	196938
#	207144
#	219917
#	232667
#	245969
#	257344
#	274977
#	289525
#	302506
#	313804
#
# Disc length: 4369 seconds
#
# Revision: 1
# Processed by: cddbd v1.5.2PL0 Copyright (c) Steve Scherf et al.
# Submitted via: audiograbber 1.83.01
#
DISCID=4a110f19
DTITLE=Various Artist - Bluesology
DYEAR=2013
DGENRE=Blues
TTITLE0=John Lee Hooker - Boom Boom
TTITLE1=B.B. King - 3 O'Clock Blues
TTITLE2=Jimmy Reel - Bright Lights, Big City
TTITLE3=Slim Harpo - I'm A King Bee
TTITLE4=Jimmy Witherspoon - Ain't Nobody's Business If I Do
TTITLE5=Bo Diddley - Road Runner
TTITLE6=Buddy Guy - First Time I Met The Blues
TTITLE7=Junior Wells - I Could Cry
TTITLE8=Blind Boy Fuller - Pistol Slapper Blues
TTITLE9=Champion Jack Dupree - Goin' Down Slow
TTITLE10=Lightnin' Hopkins - Broken Hearted Blues
TTITLE11=Willie Dixon and Memphis Slim - Don't You Tell Nobody
TTITLE12=Big Joe Williams - Crawlin' King Snake
TTITLE13=Albert King - Travelin' To California
TTITLE14=Big Bill Broonzy - When I Been Drinking
TTITLE15=Elmore James - I Can't Hold Out
TTITLE16=Bukka White - Fixin' To Die Blues
TTITLE17=Sonny Boy Williamson - Keep It To Yourself
TTITLE18=Missippi John Hurt - Stack O Lee
TTITLE19=Robert Johnson - Me And The Devil Blues
TTITLE20=Lonnie Johnson - I Don't Hurt Anymore
TTITLE21=Leadbelly - Worried Blues
TTITLE22=Robert Nighthawk - Six Three O
TTITLE23=T Bone Walker - Wanderin' Heart
TTITLE24=Howlin' Wolf - Smokestack Lightning
EXTD=
EXTT0=
EXTT1=
EXTT2=
EXTT3=
EXTT4=
EXTT5=
EXTT6=
EXTT7=
EXTT8=
EXTT9=
EXTT10=
EXTT11=
EXTT12=
EXTT13=
EXTT14=
EXTT15=
EXTT16=
EXTT17=
EXTT18=
EXTT19=
EXTT20=
EXTT21=
EXTT22=
EXTT23=
EXTT24=
PLAYORDER=
